<?xml version="1.0" standalone="no"?>
<!DOCTYPE svg PUBLIC "-//W3C//DTD SVG 20010904//EN"
 "http://www.w3.org/TR/2001/REC-SVG-20010904/DTD/svg10.dtd">
<svg version="1.0" xmlns="http://www.w3.org/2000/svg"
 width="32.000000pt" height="32.000000pt" viewBox="0 0 32.000000 32.000000"
 preserveAspectRatio="xMidYMid meet">
<metadata>
Created by potrace 1.10, written by Peter Selinger 2001-2011
</metadata>
<g transform="translate(0.000000,32.000000) scale(0.100000,-0.100000)"
fill="#000000" stroke="none">
<path d="M162 268 c-19 -19 -14 -49 8 -55 11 -3 20 -10 20 -15 0 -5 -9 -6 -20
-3 -24 7 -26 -7 -5 -25 12 -10 18 -10 30 0 22 18 19 51 -5 57 -11 3 -20 10
-20 15 0 5 9 6 20 3 22 -7 26 5 8 23 -15 15 -21 15 -36 0z"/>
<path d="M57 128 c-22 -8 -26 -14 -21 -31 10 -33 20 -40 42 -28 17 9 28 7 56
-10 l36 -21 60 24 c33 12 60 29 60 35 0 17 1 17 -62 -11 -53 -23 -54 -24 -88
-6 -19 11 -45 16 -57 13 -13 -3 -23 -1 -23 6 0 19 49 24 75 7 27 -18 65 -21
65 -6 0 6 -8 10 -18 10 -10 0 -27 7 -38 15 -22 17 -47 18 -87 3z"/>
</g>
</svg>
